<?xml version="1.0" standalone="no"?>
<!DOCTYPE svg PUBLIC "-//W3C//DTD SVG 20010904//EN"
 "http://www.w3.org/TR/2001/REC-SVG-20010904/DTD/svg10.dtd">
<svg version="1.0" xmlns="http://www.w3.org/2000/svg"
 width="225.000000pt" height="225.000000pt" viewBox="0 0 225.000000 225.000000"
 preserveAspectRatio="xMidYMid meet">

<g transform="translate(0.000000,225.000000) scale(0.100000,-0.100000)"
fill="#000000" stroke="none">
<path d="M417 1753 c-11 -11 -8 -48 5 -61 8 -8 54 -12 140 -12 124 0 128 -1
132 -22 8 -38 96 -642 96 -659 0 -9 -18 -28 -41 -43 -65 -44 -95 -132 -68
-203 28 -74 99 -112 211 -113 l76 0 -28 -28 c-78 -79 -50 -208 55 -248 38 -14
51 -15 89 -4 70 19 116 80 116 151 0 36 -13 64 -48 102 l-26 27 206 0 206 0
-28 -28 c-75 -76 -48 -207 52 -246 100 -41 208 35 208 144 0 37 -13 65 -48
103 l-26 27 100 0 c105 0 124 7 124 45 0 45 5 45 -570 45 l-547 0 -20 23 c-11
12 -24 32 -27 44 -8 26 16 78 43 93 13 6 193 10 509 10 385 0 492 3 500 13 11
12 112 593 112 640 0 14 -7 28 -16 31 -9 3 -263 6 -565 6 -302 0 -549 3 -549
6 0 35 -25 151 -34 156 -14 10 -330 10 -339 1z m1410 -270 c-3 -16 -22 -133
-43 -260 l-38 -233 -433 0 -433 0 -4 23 c-3 12 -19 119 -36 237 -17 118 -33
225 -35 238 l-5 22 516 0 517 0 -6 -27z m-734 -931 c22 -19 22 -70 0 -94 -21
-24 -68 -23 -93 2 -25 25 -26 72 -2 92 33 29 60 29 95 0z m577 -10 c50 -62
-43 -139 -100 -82 -46 46 0 129 62 112 10 -2 27 -16 38 -30z"/>
</g>
</svg>
