<?xml version="1.0" standalone="no"?>
<!DOCTYPE svg PUBLIC "-//W3C//DTD SVG 20010904//EN"
 "http://www.w3.org/TR/2001/REC-SVG-20010904/DTD/svg10.dtd">
<svg version="1.0" xmlns="http://www.w3.org/2000/svg"
 width="360.000000pt" height="360.000000pt" viewBox="0 0 360.000000 360.000000"
 preserveAspectRatio="xMidYMid meet">

<g transform="translate(0.000000,360.000000) scale(0.100000,-0.100000)"
fill="#000000" stroke="none">
<path d="M1730 2919 c-63 -48 -287 -235 -440 -368 l-105 -91 -3 130 -3 130
-169 0 -170 0 0 -282 0 -283 -181 -160 c-169 -149 -209 -189 -209 -207 0 -12
31 -38 46 -38 13 0 477 395 999 849 273 237 306 263 323 249 59 -51 567 -488
891 -767 211 -182 391 -331 400 -331 23 0 41 20 41 45 0 19 -25 43 -240 230
-31 28 -162 142 -291 255 -381 334 -662 574 -773 658 -40 30 -53 28 -116 -19z
m-640 -418 c0 -125 -1 -130 -24 -148 -13 -10 -52 -42 -85 -71 l-61 -54 0 201
0 201 85 0 85 0 0 -129z"/>
<path d="M1698 2623 c-103 -85 -810 -674 -818 -683 -3 -3 -31 -27 -62 -53
l-58 -49 0 -587 c0 -454 3 -591 12 -604 12 -16 46 -17 418 -15 l405 3 3 303 2
302 200 0 200 0 0 -293 c0 -215 3 -296 12 -305 17 -17 799 -17 816 0 9 9 12
156 12 602 0 325 -4 596 -8 601 -4 6 -63 58 -132 115 -69 57 -287 240 -485
405 -351 293 -403 335 -416 335 -3 0 -49 -35 -101 -77z m583 -425 l469 -392 0
-548 0 -548 -332 0 -333 0 -2 296 c-1 164 -6 301 -11 306 -10 10 -511 12 -536
2 -14 -5 -16 -43 -16 -305 l0 -299 -335 0 -335 0 0 548 1 547 470 393 c259
215 475 392 481 392 5 0 221 -176 479 -392z"/>
</g>
</svg>
