<?xml version="1.0" standalone="no"?>
<!DOCTYPE svg PUBLIC "-//W3C//DTD SVG 20010904//EN"
 "http://www.w3.org/TR/2001/REC-SVG-20010904/DTD/svg10.dtd">
<svg version="1.0" xmlns="http://www.w3.org/2000/svg"
 width="240.000000pt" height="210.000000pt" viewBox="0 0 240.000000 210.000000"
 preserveAspectRatio="xMidYMid meet">

<g transform="translate(0.000000,210.000000) scale(0.100000,-0.100000)"
fill="#000000" stroke="none">
<path d="M1577 2045 c-15 -25 -27 -47 -27 -49 0 -6 101 -69 104 -65 12 15 58
100 55 103 -23 18 -86 56 -94 56 -6 0 -22 -20 -38 -45z"/>
<path d="M803 1996 c4 -9 3 -15 -2 -12 -5 3 -21 -13 -35 -35 -31 -46 -31 -45
46 -89 l37 -21 30 53 c33 58 37 50 -43 98 -33 20 -39 21 -33 6z"/>
<path d="M1155 1810 c-4 -6 -3 -16 3 -22 6 -6 12 -6 17 2 4 6 3 16 -3 22 -6 6
-12 6 -17 -2z"/>
<path d="M1179 1755 c-8 -8 -27 -16 -42 -17 -16 -1 -27 -8 -27 -18 0 -13 -1
-13 -10 0 -8 12 -10 12 -10 1 0 -11 -3 -11 -15 -1 -18 15 -19 7 -3 -19 11 -18
14 -18 67 16 66 42 66 42 60 48 -3 2 -12 -2 -20 -10z"/>
<path d="M497 1714 c-39 -12 -47 -18 -42 -32 4 -9 12 -33 17 -52 5 -19 13 -39
18 -44 8 -8 78 11 95 28 7 6 6 7 -2 2 -7 -3 -14 2 -18 13 -3 11 -16 22 -28 24
-22 4 -22 4 -1 6 25 1 35 20 27 50 -6 24 -3 24 -66 5z"/>
<path d="M1411 1697 l-20 -31 31 -19 c31 -19 32 -19 50 5 24 32 23 40 -12 60
-29 16 -29 16 -49 -15z"/>
<path d="M1788 1673 l-25 -38 44 -27 c24 -15 48 -39 53 -53 11 -28 12 -28 60
-10 27 10 30 14 13 14 -26 1 -45 31 -33 51 11 17 4 31 -13 24 -15 -5 -79 54
-71 67 3 5 3 9 1 9 -2 0 -15 -17 -29 -37z"/>
<path d="M601 1520 c-28 -45 -51 -85 -51 -89 0 -9 131 -94 162 -106 12 -5 25
10 51 56 35 62 39 86 11 75 -8 -3 -14 -1 -14 5 0 15 -26 39 -34 32 -3 -4 -6 1
-6 10 0 10 -4 17 -10 17 -5 0 -10 10 -10 23 0 18 -2 19 -10 7 -8 -13 -10 -13
-10 2 0 11 -5 15 -14 12 -11 -4 -13 0 -9 15 10 37 -4 23 -56 -59z"/>
<path d="M1495 1563 c-11 -8 -26 -18 -34 -22 -11 -7 -9 -16 10 -50 20 -35 22
-43 9 -51 -21 -13 -30 -3 -30 35 l0 35 -44 -22 -44 -21 35 -71 c20 -39 37 -72
38 -74 2 -2 24 7 49 21 25 13 43 27 40 30 -3 3 2 4 13 1 33 -8 46 9 31 40 -11
26 -10 30 20 55 18 14 32 32 32 38 0 15 -39 42 -71 48 -12 3 -25 9 -28 14 -4
5 -15 3 -26 -6z"/>
<path d="M779 1517 c-14 -33 -2 -47 39 -47 12 0 22 -4 22 -9 0 -8 110 -55 115
-49 7 7 35 81 32 84 -2 2 -38 5 -81 6 -73 2 -106 14 -92 36 3 5 -1 9 -9 9 -8
0 -19 -13 -26 -30z"/>
<path d="M1168 1533 c-8 -10 -25 -35 -37 -55 l-22 -37 55 -36 c30 -19 57 -35
59 -35 5 0 77 107 77 115 0 4 -63 39 -111 63 -3 1 -12 -5 -21 -15z"/>
<path d="M847 1423 c-4 -3 -7 -43 -8 -87 0 -45 -3 -75 -6 -68 -2 6 -10 12 -17
12 -7 0 -18 11 -24 25 -6 14 -15 25 -19 25 -5 0 -28 -17 -53 -39 l-44 -38 28
-38 29 -37 -26 17 c-25 16 -28 16 -57 -5 -16 -12 -30 -23 -30 -26 0 -2 16 -26
36 -54 30 -42 39 -48 54 -40 27 14 26 15 39 -44 l12 -54 57 15 c55 14 57 14
71 -6 13 -20 22 -21 206 -21 105 0 194 2 197 6 3 3 -2 33 -12 67 -10 34 -26
89 -35 121 -12 44 -19 56 -26 45 -8 -12 -10 -12 -18 1 -5 8 -8 17 -6 21 3 3
-8 4 -23 2 -20 -3 -23 -2 -13 5 11 8 8 11 -15 14 -16 2 -29 8 -28 13 0 6 -5
16 -13 23 -10 10 -20 11 -54 1 -37 -11 -43 -11 -54 4 -16 22 -106 118 -127
134 -8 7 -18 10 -21 6z m-63 -119 c5 -14 4 -15 -9 -4 -17 14 -19 20 -6 20 5 0
12 -7 15 -16z"/>
<path d="M1257 1251 c-4 -19 111 -157 130 -155 7 1 10 -3 7 -8 -3 -5 1 -17 9
-26 8 -9 20 -37 27 -61 l12 -44 80 6 c45 4 83 9 86 12 3 3 -2 13 -11 23 -10
10 -17 22 -17 26 0 4 -9 20 -20 36 -11 15 -17 30 -13 34 3 3 -1 6 -10 6 -10 0
-17 5 -17 10 0 6 -9 10 -19 10 -11 0 -22 4 -25 9 -3 4 -16 8 -28 7 -15 -1 -29
8 -40 26 -10 16 -24 28 -31 28 -8 0 -22 9 -32 20 -10 11 -30 20 -44 21 -20 0
-22 2 -9 7 15 6 14 9 -7 18 -20 10 -25 9 -28 -5z"/>
<path d="M383 1113 c9 -2 17 -9 17 -14 0 -5 10 -14 23 -19 18 -7 15 -9 -23
-10 -38 -2 -41 -3 -20 -10 21 -7 22 -8 5 -9 -19 -2 -19 -2 -2 -12 10 -6 26 -8
35 -4 9 3 13 3 9 -1 -4 -4 5 -13 19 -19 26 -10 30 -25 101 -310 40 -165 76
-310 78 -322 l5 -23 493 0 492 0 -3 43 -4 42 -456 0 -456 0 -76 308 c-42 169
-81 311 -86 316 -11 10 -143 52 -158 50 -6 -1 -3 -3 7 -6z"/>
<path d="M904 913 c3 -10 8 -30 12 -45 11 -49 64 -33 64 18 0 24 5 34 15 34
10 0 15 -10 15 -29 l0 -29 78 19 c220 52 220 47 4 48 -180 1 -193 0 -188 -16z"/>
<path d="M1450 920 c0 -11 14 -11 50 0 22 7 21 8 -12 9 -21 1 -38 -3 -38 -9z"/>
<path d="M765 840 c-3 -5 5 -25 17 -44 20 -32 28 -36 66 -36 25 0 41 4 37 10
-3 5 -12 7 -20 3 -27 -10 -64 7 -79 36 -9 16 -12 31 -9 35 4 3 4 6 0 6 -3 0
-8 -4 -12 -10z"/>
<path d="M1163 843 l-73 -4 0 -44 0 -45 93 0 93 0 3 50 c2 47 0 50 -21 48 -13
-1 -56 -4 -95 -5z"/>
<path d="M931 791 c-28 -39 -27 -41 15 -41 34 0 35 1 32 32 -4 42 -21 46 -47
9z"/>
<path d="M1351 790 c-11 -6 -6 -12 18 -24 17 -9 31 -13 31 -9 0 12 -20 39 -20
28 0 -5 -4 -5 -8 2 -5 7 -13 9 -21 3z"/>
<path d="M1016 765 c4 -8 12 -15 20 -15 20 0 17 7 -6 20 -16 9 -18 8 -14 -5z"/>
<path d="M842 708 c5 -15 28 -23 28 -10 0 5 -7 13 -16 16 -10 4 -14 1 -12 -6z"/>
<path d="M900 707 c14 -7 37 -21 53 -31 l27 -18 0 31 c0 31 0 31 -52 31 -50 0
-51 -1 -28 -13z"/>
<path d="M1010 704 c0 -8 5 -12 10 -9 6 3 10 10 10 16 0 5 -4 9 -10 9 -5 0
-10 -7 -10 -16z"/>
<path d="M1100 675 l0 -45 38 0 c20 0 54 3 75 7 32 5 39 11 44 34 3 16 9 26
14 23 5 -3 9 1 9 9 0 11 -19 15 -90 16 l-90 2 0 -46z"/>
<path d="M1315 630 c-3 -5 -2 -10 4 -10 5 0 13 5 16 10 3 6 2 10 -4 10 -5 0
-13 -4 -16 -10z"/>
<path d="M820 313 c-56 -20 -93 -99 -70 -144 28 -53 51 -69 103 -69 40 0 53 5
78 29 24 25 29 38 29 78 0 39 -5 54 -22 70 -43 39 -79 50 -118 36z"/>
<path d="M1430 302 c-57 -28 -76 -92 -45 -152 20 -38 43 -50 98 -50 34 0 50 6
70 26 54 54 40 146 -28 178 -42 20 -52 20 -95 -2z"/>
<path d="M975 60 c4 -6 88 -10 221 -10 136 0 214 4 214 10 0 6 -80 10 -221 10
-144 0 -218 -3 -214 -10z"/>
</g>
</svg>
