<?xml version="1.0" standalone="no"?>
<!DOCTYPE svg PUBLIC "-//W3C//DTD SVG 20010904//EN"
 "http://www.w3.org/TR/2001/REC-SVG-20010904/DTD/svg10.dtd">
<svg version="1.0" xmlns="http://www.w3.org/2000/svg"
 width="301.000000pt" height="167.000000pt" viewBox="0 0 301.000000 167.000000"
 preserveAspectRatio="xMidYMid meet">

<g transform="translate(0.000000,167.000000) scale(0.100000,-0.100000)"
fill="#000000" stroke="none">
<path d="M1930 1643 c-27 -10 -65 -37 -95 -67 -84 -83 -101 -169 -71 -343 18
-100 29 -123 60 -123 47 0 52 20 33 151 -21 140 -15 180 39 239 97 107 260 85
320 -43 43 -93 27 -255 -42 -428 -19 -48 -34 -96 -34 -107 0 -29 33 -46 60
-32 65 35 153 357 135 490 -17 122 -77 213 -170 256 -60 29 -165 31 -235 7z"/>
<path d="M1063 1028 c-205 -204 -377 -384 -384 -400 -6 -15 -8 -40 -5 -55 5
-19 99 -119 275 -295 l267 -268 49 0 49 0 380 380 381 380 -2 147 c-2 178 -28
412 -47 431 -14 14 -75 31 -113 32 -21 0 -22 -3 -16 -52 3 -29 13 -62 23 -73
83 -95 27 -235 -92 -235 -94 0 -162 97 -128 184 5 14 6 63 3 110 l-6 86 -131
0 -130 0 -373 -372z"/>
</g>
</svg>
