<?xml version="1.0" standalone="no"?>
<!DOCTYPE svg PUBLIC "-//W3C//DTD SVG 20010904//EN"
 "http://www.w3.org/TR/2001/REC-SVG-20010904/DTD/svg10.dtd">
<svg version="1.0" xmlns="http://www.w3.org/2000/svg"
 width="209.000000pt" height="241.000000pt" viewBox="0 0 209.000000 241.000000"
 preserveAspectRatio="xMidYMid meet">

<g transform="translate(0.000000,241.000000) scale(0.100000,-0.100000)"
fill="#000000" stroke="none">
<path d="M961 2178 c-54 -37 -73 -70 -80 -140 l-6 -63 -99 -3 c-55 -1 -106 -8
-113 -14 -10 -8 -13 -88 -13 -379 0 -321 2 -370 16 -383 13 -14 62 -16 383
-16 272 0 370 3 379 12 18 18 17 751 -1 766 -7 6 -58 13 -113 14 l-99 3 -6 60
c-6 69 -15 89 -58 130 -26 24 -41 30 -94 33 -52 3 -67 0 -96 -20z m123 -89
c23 -18 27 -27 24 -68 l-3 -46 -60 0 -60 0 -3 46 c-3 41 1 50 24 68 15 11 32
21 39 21 7 0 24 -10 39 -21z"/>
<path d="M1010 2080 c-21 -21 -30 -107 -10 -95 6 3 10 19 10 34 0 31 27 61 56
61 16 0 17 2 4 10 -23 15 -38 12 -60 -10z"/>
<path d="M1221 2038 c-1 -26 4 -50 9 -53 12 -8 12 52 0 80 -6 15 -9 8 -9 -27z"/>
<path d="M1450 1574 c0 -347 -1 -372 -18 -387 -17 -15 -58 -17 -388 -17 -242
0 -364 -4 -354 -10 9 -6 161 -10 378 -10 349 0 363 1 382 20 19 19 20 33 20
383 0 216 -4 368 -10 377 -6 10 -10 -113 -10 -356z"/>
<path d="M1752 1261 c-85 -29 -121 -73 -229 -280 -53 -101 -110 -200 -127
-219 -51 -58 -71 -62 -318 -62 -252 0 -268 4 -268 64 0 63 11 66 251 66 157 0
219 3 231 13 21 17 88 144 88 167 0 38 -28 41 -373 38 -321 -3 -334 -4 -382
-26 -39 -17 -98 -70 -249 -221 -177 -177 -198 -202 -192 -224 3 -15 70 -87
161 -173 85 -81 152 -151 150 -154 -2 -4 8 -5 23 -2 17 3 71 48 147 123 l120
118 295 3 295 3 60 29 c109 54 144 100 308 412 81 155 147 288 147 296 0 22
-33 48 -61 48 -13 -1 -48 -9 -77 -19z"/>
<path d="M1902 1231 c-1 -8 -68 -141 -149 -295 -167 -318 -202 -365 -312 -419
l-66 -32 -295 -3 -295 -3 -121 -120 c-68 -67 -129 -119 -140 -119 -18 -1 -18
-1 -1 -11 25 -14 47 2 174 124 l105 102 291 5 292 5 67 32 c103 49 152 104
243 278 43 83 109 209 147 280 51 97 68 138 65 160 -2 17 -5 24 -5 16z"/>
<path d="M1360 935 c-61 -121 -44 -115 -298 -115 -236 0 -242 -1 -242 -55 l0
-30 20 33 c11 17 21 33 22 34 2 1 106 4 232 7 l229 6 44 82 c28 53 41 87 36
96 -5 9 -19 -9 -43 -58z"/>
</g>
</svg>
