<?xml version="1.0" standalone="no"?>
<!DOCTYPE svg PUBLIC "-//W3C//DTD SVG 20010904//EN"
 "http://www.w3.org/TR/2001/REC-SVG-20010904/DTD/svg10.dtd">
<svg version="1.0" xmlns="http://www.w3.org/2000/svg"
 width="225.000000pt" height="225.000000pt" viewBox="0 0 225.000000 225.000000"
 preserveAspectRatio="xMidYMid meet">

<g transform="translate(0.000000,225.000000) scale(0.100000,-0.100000)"
fill="#000000" stroke="none">
<path d="M920 2154 c-170 -37 -323 -109 -453 -214 -176 -141 -297 -330 -359
-558 -26 -98 -36 -325 -18 -427 58 -328 252 -598 543 -755 258 -139 584 -160
862 -55 349 131 599 436 665 810 18 102 8 329 -18 427 -109 403 -411 688 -820
773 -92 19 -312 18 -402 -1z m362 -426 c74 -34 152 -112 186 -186 23 -49 27
-70 27 -152 0 -84 -3 -103 -29 -157 -34 -75 -113 -154 -188 -188 -237 -107
-509 59 -526 321 -10 163 79 305 235 370 82 35 212 31 295 -8z m38 -853 c193
-60 356 -194 438 -362 25 -51 26 -53 7 -73 -68 -75 -235 -171 -380 -216 -84
-27 -101 -29 -260 -29 -159 0 -176 2 -260 29 -49 15 -129 48 -176 72 -84 43
-219 145 -219 165 0 19 49 105 95 167 87 115 234 211 390 253 87 24 279 21
365 -6z"/>
</g>
</svg>
